<svg xmlns="http://www.w3.org/2000/svg" viewBox="0 0 30.99 30"><defs><style>.cls-1{fill:#ff9600;}</style></defs><title>arrow_2</title><g id="Layer_2" data-name="Layer 2"><g id="Capa_1" data-name="Capa 1"><path class="cls-1" d="M16.21,29.69,30.68,15.22A1,1,0,0,0,31,14.5a1,1,0,0,0-.31-.71l-1.55-1.55a1,1,0,0,0-.71-.31,1,1,0,0,0-.72.31L15.5,24.44,3.29,12.24a1,1,0,0,0-.71-.31,1,1,0,0,0-.72.31L.31,13.79A1,1,0,0,0,0,14.5a1,1,0,0,0,.31.72L14.78,29.69a1,1,0,0,0,.72.31A1,1,0,0,0,16.21,29.69Z"/><path class="cls-1" d="M15.5,18.07a1,1,0,0,0,.71-.31L30.68,3.29A1,1,0,0,0,31,2.58a1,1,0,0,0-.31-.72L29.13.31A1,1,0,0,0,28.42,0a1,1,0,0,0-.72.31L15.5,12.52,3.29.31A1,1,0,0,0,2.58,0a1,1,0,0,0-.72.31L.31,1.86A1,1,0,0,0,0,2.58a1,1,0,0,0,.31.71L14.78,17.76A1,1,0,0,0,15.5,18.07Z"/></g></g></svg>