<?xml version="1.0" encoding="utf-8"?>
<!-- Generator: Adobe Illustrator 22.0.1, SVG Export Plug-In . SVG Version: 6.00 Build 0)  -->
<svg version="1.1" id="Layer_1" xmlns="http://www.w3.org/2000/svg" xmlns:xlink="http://www.w3.org/1999/xlink" x="0px" y="0px"
	 viewBox="0 0 20 20" style="enable-background:new 0 0 20 20;" xml:space="preserve">
<style type="text/css">
	.st0{fill:#16226E;}
</style>
<title>clock</title>
<g id="Layer_2_1_">
	<g id="Layer_1-2">
		<path class="st0" d="M10,0C4.5,0,0,4.5,0,10s4.5,10,10,10s10-4.5,10-10S15.5,0,10,0z M10.7,11.2C10.7,11.2,10.7,11.3,10.7,11.2
			c0,0.1,0,0.1,0,0.1s0,0,0,0.1v0.1l0,0l-0.1,0.1l0,0l-0.1,0.1l0,0l-0.1,0.1l0,0l-0.1,0.1l0,0h-0.1H9.8H9.7l0,0L5.9,10
			C5.5,9.8,5.4,9.4,5.5,9.1c0.2-0.3,0.6-0.5,0.9-0.3l0,0l2.8,1.3v-6c0-0.4,0.3-0.7,0.7-0.7s0.7,0.3,0.7,0.7v7.1H10.7L10.7,11.2z"/>
	</g>
</g>
</svg>
