<svg xmlns="http://www.w3.org/2000/svg" viewBox="0 0 29.11 22"><defs><style>.cls-1{fill:#ff9600;}</style></defs><title>correct</title><g id="Layer_2" data-name="Layer 2"><g id="Capa_1" data-name="Capa 1"><path class="cls-1" d="M11,22a1.1,1.1,0,0,1-.85-.35l-9.8-9.8A1.13,1.13,0,0,1,0,11a1.1,1.1,0,0,1,.35-.84L3,7.48a1.15,1.15,0,0,1,.85-.35,1.1,1.1,0,0,1,.85.35L11,13.77,24.39.35a1.21,1.21,0,0,1,1.7,0L28.76,3a1.15,1.15,0,0,1,.35.85,1.14,1.14,0,0,1-.35.86L11.84,21.65A1.13,1.13,0,0,1,11,22Z"/></g></g></svg>