<?xml version="1.0" encoding="utf-8"?>
<!-- Generator: Adobe Illustrator 22.0.1, SVG Export Plug-In . SVG Version: 6.00 Build 0)  -->
<svg version="1.1" id="Layer_1" xmlns="http://www.w3.org/2000/svg" xmlns:xlink="http://www.w3.org/1999/xlink" x="0px" y="0px"
	 viewBox="0 0 25.5 20" style="enable-background:new 0 0 25.5 20;" xml:space="preserve">
<style type="text/css">
	.st0{fill:#16226E;}
</style>
<title>envelope</title>
<g id="Layer_2_1_">
	<g id="Capa_1">
		<path class="st0" d="M2.4,6.2l2.9,2L9,10.8l0.6,0.4c0.3,0.2,0.6,0.4,0.8,0.5s0.4,0.3,0.7,0.5s0.5,0.3,0.8,0.4
			c0.2,0.1,0.5,0.1,0.7,0.1l0,0c0.2,0,0.5-0.1,0.7-0.1c0.3-0.1,0.6-0.2,0.8-0.4c0.3-0.2,0.5-0.3,0.7-0.5s0.5-0.3,0.8-0.5l0.6-0.4
			L23,6.2c0.7-0.5,1.3-1.1,1.7-1.7c0.4-0.6,0.7-1.4,0.7-2.2c0-0.6-0.2-1.2-0.7-1.6c-0.4-0.4-1-0.7-1.6-0.7H2.3C1.6,0,1,0.2,0.6,0.7
			C0.2,1.3,0,1.9,0,2.6S0.3,4,0.8,4.5C1.2,5.2,1.8,5.7,2.4,6.2z"/>
		<path class="st0" d="M24,7.7c-3.1,2.1-5.5,3.7-7.1,4.9l-1.3,0.9c-0.4,0.3-0.9,0.5-1.4,0.7s-1,0.3-1.6,0.4l0,0
			c-0.5,0-1.1-0.1-1.6-0.4c-0.5-0.2-0.9-0.4-1.3-0.7l-1.3-0.9c-1.2-1-3.5-2.6-7-4.9C0.9,7.3,0.4,6.9,0,6.4v11.3
			c0,0.6,0.2,1.2,0.7,1.6c0.4,0.4,1,0.7,1.6,0.7h20.9c1.3,0,2.3-1,2.3-2.3l0,0V6.4C25,6.9,24.5,7.3,24,7.7z"/>
	</g>
</g>
</svg>
