<?xml version="1.0" encoding="utf-8"?>
<!-- Generator: Adobe Illustrator 22.0.1, SVG Export Plug-In . SVG Version: 6.00 Build 0)  -->
<svg version="1.1" id="Layer_1" xmlns="http://www.w3.org/2000/svg" xmlns:xlink="http://www.w3.org/1999/xlink" x="0px" y="0px"
	 viewBox="0 0 10.8 20" style="enable-background:new 0 0 10.8 20;" xml:space="preserve">
<style type="text/css">
	.st0{fill:#16226E;}
</style>
<title>facebook</title>
<g id="Layer_2_1_">
	<g id="Capa_1">
		<path class="st0" d="M10.4,0H7.8C5.3-0.2,3.1,1.8,3,4.3C3,4.5,3,4.7,3,5v2.3H0.4C0.2,7.2,0,7.4,0,7.6v3.3c0,0.2,0.2,0.4,0.4,0.4H3
			v8.3C3,19.8,3.2,20,3.4,20l0,0h3.4c0.2,0,0.4-0.2,0.4-0.4l0,0v-8.3h3c0.2,0,0.4-0.2,0.4-0.4V7.6c0-0.1,0-0.2-0.1-0.3
			c-0.1-0.1-0.2-0.1-0.3-0.1h-3V5.3c0-0.9,0.2-1.4,1.4-1.4h1.8c0.2,0,0.4-0.2,0.4-0.4V0.4C10.8,0.2,10.6,0,10.4,0z"/>
	</g>
</g>
</svg>
