<?xml version="1.0" encoding="utf-8"?>
<!-- Generator: Adobe Illustrator 22.0.1, SVG Export Plug-In . SVG Version: 6.00 Build 0)  -->
<svg version="1.1" id="Layer_1" xmlns="http://www.w3.org/2000/svg" xmlns:xlink="http://www.w3.org/1999/xlink" x="0px" y="0px"
	 viewBox="0 0 31 20" style="enable-background:new 0 0 31 20;" xml:space="preserve">
<style type="text/css">
	.st0{fill:#16226E;}
</style>
<title>google</title>
<g id="Layer_2_1_">
	<g id="Layer_1-2">
		<path class="st0" d="M10.1,3.6c2,0,3.9,1,5.1,2.6l2.6-2.6C14.2-0.6,7.9-1.2,3.6,2.3s-4.8,9.8-1.3,14.1s9.8,4.8,14.1,1.3
			c1.5-1.3,2.7-3,3.2-5c0.3-0.9,0.4-1.8,0.4-2.7V9.1H11v3.6h4.8c-1,2.2-3.3,3.6-5.7,3.6c-3.5,0-6.4-2.8-6.4-6.4
			C3.7,6.5,6.5,3.6,10.1,3.6z"/>
		<path class="st0" d="M28.2,5.4h-3.6v2.7h-2.7v3.6h2.7v2.7h3.6v-2.7H31V8.2h-2.8V5.4z"/>
	</g>
</g>
</svg>
