<?xml version="1.0" encoding="utf-8"?>
<!-- Generator: Adobe Illustrator 22.0.1, SVG Export Plug-In . SVG Version: 6.00 Build 0)  -->
<svg version="1.1" id="Layer_1" xmlns="http://www.w3.org/2000/svg" xmlns:xlink="http://www.w3.org/1999/xlink" x="0px" y="0px"
	 viewBox="0 0 20 20" style="enable-background:new 0 0 20 20;" xml:space="preserve">
<style type="text/css">
	.st0{fill:#16226E;}
</style>
<title>instagram</title>
<g id="Layer_2_1_">
	<g id="Layer_1-2">
		<path class="st0" d="M5.6,20L5.6,20C2.4,19.9,0,17.3,0,14.2V5.8C0,2.6,2.6,0,5.8,0h8.5C17.4,0,20,2.6,20,5.8v8.5
			c0,3.2-2.6,5.8-5.8,5.8H5.6z M5.8,2.7c-1.7,0-3,1.3-3,3l0,0v8.5c0,0.8,0.3,1.6,0.9,2.1c0.6,0.6,1.3,0.9,2.1,0.9h8.5
			c1.7,0,3-1.3,3-3V5.8c0-1.7-1.3-3-3-3L5.8,2.7z"/>
		<path class="st0" d="M10,14.3c-2.4,0-4.3-1.9-4.3-4.3c0-2.4,1.9-4.3,4.3-4.3c2.4,0,4.3,1.9,4.3,4.3c0,0,0,0,0,0
			C14.3,12.4,12.4,14.3,10,14.3z M10,7.6c-1.3,0-2.4,1.1-2.4,2.4c0,1.3,1.1,2.4,2.4,2.4c1.3,0,2.4-1.1,2.4-2.4
			C12.4,8.7,11.3,7.6,10,7.6C10,7.6,10,7.6,10,7.6z"/>
		<path class="st0" d="M10,6c-2.2,0-4,1.9-3.9,4.1s1.9,4,4.1,3.9c2.2,0,3.9-1.8,3.9-4C14.1,7.8,12.3,6,10,6C10,6,10,6,10,6z
			 M10,12.7c-1.5,0-2.7-1.2-2.7-2.6S8.5,7.4,10,7.4c1.5,0,2.6,1.2,2.7,2.6C12.6,11.5,11.5,12.6,10,12.7L10,12.7z"/>
		<path class="st0" d="M14.4,6.9c-0.3,0-0.7-0.1-0.9-0.4c-0.2-0.2-0.4-0.6-0.4-0.9c0-0.7,0.6-1.3,1.3-1.3s1.3,0.6,1.3,1.3
			c0,0.3-0.1,0.7-0.4,0.9C15.1,6.8,14.7,6.9,14.4,6.9z"/>
	</g>
</g>
</svg>
