<svg xmlns="http://www.w3.org/2000/svg" viewBox="0 0 98.29 100"><defs><style>.cls-1{fill:#9495aa;}</style></defs><title>sound</title><g id="Layer_2" data-name="Layer 2"><g id="Layer_1-2" data-name="Layer 1"><path class="cls-1" d="M98.29,50.85A13.54,13.54,0,0,0,88,37.7a1.21,1.21,0,0,0,.06-.38,39,39,0,0,0-77.9,0,2.32,2.32,0,0,0,.06.38,13.56,13.56,0,0,0,1.6,26.6,13.86,13.86,0,0,0,1.7.11h3.39V37.29H13.6a35.59,35.59,0,0,1,71.09,0H81.35V64.41h3.39v5.08c0,13.53-10.93,23.73-25.43,23.73a1.36,1.36,0,0,0-.29.06,5.08,5.08,0,1,0,0,3.27,1.36,1.36,0,0,0,.29.06c16.43,0,28.81-11.66,28.81-27.12V64.41A1.13,1.13,0,0,0,88,64,13.42,13.42,0,0,0,98.29,50.85Z"/></g></g></svg>