<?xml version="1.0" encoding="utf-8"?>
<!-- Generator: Adobe Illustrator 22.0.1, SVG Export Plug-In . SVG Version: 6.00 Build 0)  -->
<svg version="1.1" id="Layer_1" xmlns="http://www.w3.org/2000/svg" xmlns:xlink="http://www.w3.org/1999/xlink" x="0px" y="0px"
	 viewBox="0 0 14.2 25" style="enable-background:new 0 0 14.2 25;" xml:space="preserve">
<style type="text/css">
	.st0{fill:#16226E;}
</style>
<title>tel</title>
<g id="Layer_2_1_">
	<g id="Capa_1">
		<path class="st0" d="M12.3,0H1.8C0.8,0,0,0.8,0,1.8l0,0v21.4c0,1,0.8,1.8,1.8,1.8h10.5c1,0,1.8-0.8,1.8-1.8V1.8
			C14.2,0.8,13.3,0,12.3,0z M4.5,1.1h5.2c0.1,0,0.2,0.2,0.2,0.4S9.8,2,9.7,2H4.5C4.3,2,4.2,1.8,4.2,1.6S4.3,1.1,4.5,1.1z M7.1,23.2
			c-0.6,0-1.2-0.5-1.2-1.2c0-0.6,0.5-1.2,1.2-1.2c0.6,0,1.1,0.5,1.2,1.1C8.3,22.6,7.8,23.2,7.1,23.2L7.1,23.2z M12.8,19.2H1.4V3.1
			h11.4C12.8,3.1,12.8,19.2,12.8,19.2z"/>
	</g>
</g>
</svg>
