<?xml version="1.0" encoding="utf-8"?>
<!-- Generator: Adobe Illustrator 22.0.1, SVG Export Plug-In . SVG Version: 6.00 Build 0)  -->
<svg version="1.1" id="Layer_1" xmlns="http://www.w3.org/2000/svg" xmlns:xlink="http://www.w3.org/1999/xlink" x="0px" y="0px"
	 viewBox="0 0 28.3 20" style="enable-background:new 0 0 28.3 20;" xml:space="preserve">
<style type="text/css">
	.st0{fill:#16226E;}
</style>
<title>youtube</title>
<g id="Layer_2_1_">
	<g id="Layer_1-2">
		<path class="st0" d="M22.4,0H5.9C2.6,0,0,2.6,0,5.9l0,0v8.3C0,17.4,2.6,20,5.9,20l0,0h16.5c3.2,0,5.9-2.6,5.9-5.9V5.9
			C28.3,2.6,25.6,0,22.4,0z M18.4,10.4l-7.7,3.7c-0.2,0.1-0.3,0-0.4-0.1v-0.1V6.2c0-0.2,0.1-0.3,0.3-0.3h0.1l7.7,3.9
			c0.2,0.1,0.2,0.2,0.1,0.4C18.5,10.3,18.5,10.4,18.4,10.4L18.4,10.4z"/>
	</g>
</g>
</svg>
